

Plot:

[B]Genre : Horror

Tagline : It\'s one killer party!

Plot : Just when she thought it was over, the party\'s just getting started.[/B]


Info:

[code]
My Super Psycho Sweet 16 2 2010 SATRip TiCTaC

6.9/10

Cast
Credited cast:
Matt Angel  Matt Angel  ...  
Derek
Jennifer Sun Bell  Jennifer Sun Bell  ...  
Molly
Claire Bronson  Claire Bronson  ...  
Psychiatrist
Claire Bronson  Claire Bronson  ...  
Psychartrist
Alexandra Chen  Alexandra Chen  ...  
Student Body President
Myndy Crist  Myndy Crist  ...  
Carolyn Bell
Julianna Guill  Julianna Guill  ...  
Madison Penrose
Keith Allen Hayes  Keith Allen Hayes  
Devin Keaton  Devin Keaton  ...  
James
Stella Maeve  Stella Maeve  ...  
Zoe
Lauren McKnight  Lauren McKnight  ...  
Skye Rotter
Reagan Michelle  Reagan Michelle  ...  
Shot girl #1
Bridget Nichols  Bridget Nichols  ...  
Shot Girl
Scott Poythress  Scott Poythress  ...  
Used Car Dealer

Genres:
Horror

Country:
USA
Language:
English
Release Date:
22 October 2010 (USA)


General

Format                         : AVI
Format/Info                      : Audio Video Interleave
File size                        : 1.01 GiB
Duration                       : 1h 25mn
Overall bit rate               : 1 690 Kbps
Writing application              : Lavf52.13.0
Writing library                  : VirtualDub build 32817/release

Video
ID                             : 0
Format                         : MPEG-4 Visual
Format profile                 : Advanced Simple@L1
Format settings, BVOP            : Yes
Format settings, QPel            : No
Format settings, GMC           : No warppoints
Format settings, Matrix          : Default (H.263)
Codec ID                       : DX50
Codec ID/Hint                    : DivX 5
Duration                       : 1h 25mn
Bit rate                       : 1 485 Kbps
Width                            : 720 pixels
Height                         : 432 pixels
Display aspect ratio           : 16:9
Frame rate                     : 25.000 fps
Resolution                     : 8 bits
Colorimetry                      : 4:2:0
Scan type                        : Progressive
Bits/(Pixel*Frame)             : 0.191
Stream size                      : 907 MiB (88%)
Writing library                  : Lavc51.54.0

Audio
ID                             : 1
Format                         : MPEG Audio
Format version                 : Version 1
Format profile                 : Layer 3
Mode                           : Joint stereo
Format_Settings_ModeExtension    : MS Stereo
Codec ID                       : 55
Codec ID/Hint                    : MP3
Duration                       : 1h 25mn
Bit rate mode                    : Constant
Bit rate                       : 192 Kbps
Channel(s)                     : 2 channels
Sampling rate                    : 44.1 KHz
Stream size                      : 117 MiB (11%)
Alignment                        : Aligned on interleaves
Interleave, duration           : 26 ms (0.65 video frame)
Interleave, preload duration   : 522 ms
Writing library                  : LAME3.98 (beta)


[/code]


Screens:

[IMG]http://img190.imageshack.us/img190/6034/vlcsnap6304746.png[/IMG]
[IMG]http://img837.imageshack.us/img837/9021/vlcsnap6305352.png[/IMG]
[IMG]http://img146.imageshack.us/img146/4195/vlcsnap6309992.png[/IMG]

